<svg width="500" height="500" viewBox="0 0 500 500" fill="none" xmlns="http://www.w3.org/2000/svg">
<path d="M250 377.288V470.694C153.919 470.694 76.0078 392.781 76.0078 296.701C76.0078 200.62 153.919 122.709 250 122.709V29.3018C346.08 29.3018 423.993 107.214 423.993 203.294C423.993 299.375 346.08 377.288 250 377.288Z" fill="white"/>
<path d="M250 0C111.941 0 0 111.941 0 250C0 388.059 111.941 500 250 500C388.059 500 500 388.059 500 250C500 111.941 388.059 0 250 0ZM250 377.29V470.696C153.919 470.696 76.0077 392.784 76.0077 296.704C76.0077 200.622 153.919 122.711 250 122.711V29.304C346.08 29.304 423.993 107.216 423.993 203.296C423.993 299.377 346.08 377.29 250 377.29ZM336.08 249.194V250.806C298.131 269.707 269.706 298.131 250.806 336.08H249.194C230.293 298.131 201.868 269.707 163.919 250.806V249.194C201.868 230.292 230.293 201.869 249.194 163.92H250.806C269.706 201.869 298.131 230.292 336.08 249.194Z" fill="#FF0420"/>
</svg>
