<svg width="500" height="498" viewBox="0 0 500 498" fill="none" xmlns="http://www.w3.org/2000/svg">
  <path d="M250.836 497.443C114.548 497.443 3.62305 386.466 3.62305 250.116C3.62305 113.765 114.548 2.78857 250.836 2.78857C387.124 2.78857 498.049 113.765 498.049 250.116C498.049 386.466 387.402 497.443 250.836 497.443ZM250.836 13.1055C120.122 13.1055 13.9352 119.342 13.9352 250.394C13.9352 381.447 120.122 487.405 251.115 487.405C382.107 487.405 488.016 381.168 488.016 250.394C488.016 119.621 381.549 13.1055 250.836 13.1055Z" fill="#3572B9"/>
  <path d="M250 498C388.071 498 500 386.519 500 249C500 111.481 388.071 0 250 0C111.929 0 0 111.481 0 249C0 386.519 111.929 498 250 498Z" fill="#3572B9"/>
  <path d="M250.278 496.606C315.775 496.606 378.762 470.674 425.028 424.108C471.293 377.543 497.491 314.805 497.491 249.279C497.491 112.649 386.845 1.95166 250.278 1.95166C113.712 1.95166 3.06543 112.649 3.06543 249.279C3.06543 385.908 113.712 496.606 250.278 496.606Z" fill="#3574BA"/>
  <path d="M318.004 286.085C318.004 249.837 295.986 237.847 253.623 231.991C222.408 227.53 216.276 220.001 216.276 205.502C216.276 191.56 226.867 181.801 247.491 181.801C265.886 181.801 276.756 188.214 280.936 202.992C281.772 206.338 284.838 208.569 288.461 208.569H304.626C306.856 208.569 308.807 207.732 310.2 206.059C311.594 204.386 312.151 202.156 311.594 200.204C306.577 176.782 290.691 162.561 265.607 158.1V133.562C265.607 129.38 262.263 125.755 257.804 125.755H242.475C240.524 125.755 238.573 126.591 236.901 127.986C235.228 129.38 234.671 131.332 234.671 133.562V157.542C204.013 162.003 184.225 182.358 184.225 208.569C184.225 242.587 204.57 255.692 247.77 261.548C277.034 266.288 285.395 272.701 285.395 289.431C285.395 306.161 271.181 317.315 251.393 317.315C224.359 317.315 215.44 305.604 212.374 290.268C211.538 286.643 208.472 284.133 204.849 283.855H187.291C185.061 283.855 183.11 284.691 181.717 286.364C180.323 288.037 179.766 289.989 180.044 292.22C184.504 317.872 200.947 336.833 234.671 341.295V365.832C234.671 370.015 238.015 373.64 242.475 373.64H257.804C261.984 373.64 265.607 370.294 265.607 365.832V341.295C297.659 335.718 318.004 313.411 318.004 286.085Z" fill="white"/>
  <path d="M197.046 394.552C136.009 372.245 95.5966 314.247 95.5966 249.279C95.5966 184.31 136.288 126.312 197.046 104.006C200.948 102.332 203.456 98.4288 203.735 94.2463V79.7468C203.735 73.8913 199.276 70.5453 193.701 72.4971C116.778 97.0346 64.6602 168.695 64.6602 249.279C64.6602 329.862 116.778 401.523 193.701 426.06C199.276 427.733 203.735 424.666 203.735 418.811V404.311C203.735 400.129 200.948 396.225 197.046 394.552ZM306.578 72.4971C301.004 70.8241 296.544 73.8913 296.544 79.7468V94.2463C296.823 98.4288 299.331 102.332 303.233 104.006C364.27 126.312 404.682 184.31 404.682 249.279C404.682 314.247 363.991 372.245 303.233 394.552C299.331 396.225 296.544 399.85 296.544 404.311V418.811C296.544 424.666 301.004 428.012 306.578 426.06C383.501 401.523 435.619 329.862 435.619 249.279C435.619 168.695 383.501 97.0346 306.578 72.4971Z" fill="white"/>
</svg>
